# xmcd
#
# Track frame offsets: 
#        150
#        20071
#        24456
#        44147
#        60751
#        92872
#        109125
#        126491
#        133683
#        147362
#        163190
#
# Disc length: 2471 seconds
#
# Revision: 0
# Processed by: cddbd v1.5.2PL0 Copyright (c) Steve Scherf et al.
# Submitted via: ExactAudioCopyFreeDBPlugin 1.0
#
DISCID=a109a50b
DTITLE=Eric Clapton - Timepieces: The best of Eric Clapton
DYEAR=1982
DGENRE=Blues
TTITLE0=I Shot the sheriff
TTITLE1=After midnight
TTITLE2=Knockin´on Heavens Door
TTITLE3=Wonderful Tonight
TTITLE4=Layla
TTITLE5=Cocain
TTITLE6=Lay down Sally
TTITLE7=Willy and the Hand Jive
TTITLE8=Promises
TTITLE9=Swing Low Sweet Chariot
TTITLE10=Let IT Grow
EXTD=
EXTT0=
EXTT1=
EXTT2=
EXTT3=
EXTT4=
EXTT5=
EXTT6=
EXTT7=
EXTT8=
EXTT9=
EXTT10=
PLAYORDER=
